HIERARCHY
ROOT Hips
{
	OFFSET 48.330502 -34.932716 99.126595
	CHANNELS 6 Xposition Yposition Zposition Xrotation Yrotation Zrotation
	JOINT spine
	{
		OFFSET 0.000000 -0.477356 8.301041
		CHANNELS 3 Xrotation Yrotation Zrotation
		JOINT spine1
		{
			OFFSET 0.000000 0.000000 10.456497
			CHANNELS 3 Xrotation Yrotation Zrotation
			JOINT spine2
			{
				OFFSET 0.000000 0.000000 10.019203
				CHANNELS 3 Xrotation Yrotation Zrotation
				JOINT Neck
				{
					OFFSET 0.000000 -1.226418 25.723511
					CHANNELS 3 Xrotation Yrotation Zrotation
					JOINT Head
					{
						OFFSET 0.000000 0.000000 7.771744
						CHANNELS 3 Xrotation Yrotation Zrotation
						End Site
						{
							OFFSET 0.000000 6.203938 18.811996
						}
					}
				}
				JOINT RightShoulder
				{
					OFFSET -4.218800 0.587437 10.820007
					CHANNELS 3 Xrotation Yrotation Zrotation
					JOINT RightArm
					{
						OFFSET 0.000000 -0.000004 14.191406
						CHANNELS 3 Xrotation Yrotation Zrotation
						JOINT RightArmRoll
						{
							OFFSET 0.000000 0.000000 7.164078
							CHANNELS 3 Xrotation Yrotation Zrotation
							JOINT RightForeArm
							{
								OFFSET 0.000000 -0.000004 20.866501
								CHANNELS 3 Xrotation Yrotation Zrotation
								JOINT RightForeArmRoll
								{
									OFFSET 0.000000 0.000000 8.039215
									CHANNELS 3 Xrotation Yrotation Zrotation
									JOINT RightHand
									{
										OFFSET 0.000000 -0.000004 16.132996
										CHANNELS 3 Xrotation Yrotation Zrotation
										End Site
										{
											OFFSET 0.000000 0.000000 0.100006
										}
									}
								}
							}
						}
					}
				}
				JOINT LeftShoulder
				{
					OFFSET 4.218800 0.587437 10.820007
					CHANNELS 3 Xrotation Yrotation Zrotation
					JOINT LeftArm
					{
						OFFSET 0.000000 -0.000004 14.191406
						CHANNELS 3 Xrotation Yrotation Zrotation
						JOINT LeftArmRoll
						{
							OFFSET 0.000000 0.000000 7.164078
							CHANNELS 3 Xrotation Yrotation Zrotation
							JOINT LeftForeArm
							{
								OFFSET 0.000000 -0.000004 20.866501
								CHANNELS 3 Xrotation Yrotation Zrotation
								JOINT LeftForeArmRoll
								{
									OFFSET 0.000000 0.000000 8.039215
									CHANNELS 3 Xrotation Yrotation Zrotation
									JOINT LeftHand
									{
										OFFSET 0.000000 -0.000004 16.132996
										CHANNELS 3 Xrotation Yrotation Zrotation
										End Site
										{
											OFFSET 0.000000 0.000000 0.100006
										}
									}
								}
							}
						}
					}
				}
			}
		}
	}
	JOINT RightUpLeg
	{
		OFFSET -7.357731 1.131821 -1.349213
		CHANNELS 3 Xrotation Yrotation Zrotation
		JOINT RightUpLegRoll
		{
			OFFSET 0.000000 -0.000004 18.916801
			CHANNELS 3 Xrotation Yrotation Zrotation
			JOINT RightLeg
			{
				OFFSET 0.000000 0.000004 -23.425598
				CHANNELS 3 Xrotation Yrotation Zrotation
				JOINT RightLegRoll
				{
					OFFSET 0.000000 -0.000004 23.502296
					CHANNELS 3 Xrotation Yrotation Zrotation
					JOINT RightFoot
					{
						OFFSET 0.000000 -0.000004 19.561714
						CHANNELS 3 Xrotation Yrotation Zrotation
						JOINT RightToeBase
						{
							OFFSET 0.000000 -0.000004 16.352600
							CHANNELS 3 Xrotation Yrotation Zrotation
							End Site
							{
								OFFSET 0.006931 0.912838 7.919434
							}
						}
					}
				}
			}
		}
	}
	JOINT LeftUpLeg
	{
		OFFSET 7.357731 1.131821 -1.349213
		CHANNELS 3 Xrotation Yrotation Zrotation
		JOINT LeftUpLegRoll
		{
			OFFSET 0.000000 -0.000004 18.916901
			CHANNELS 3 Xrotation Yrotation Zrotation
			JOINT LeftLeg
			{
				OFFSET 0.000000 -0.000004 23.425514
				CHANNELS 3 Xrotation Yrotation Zrotation
				JOINT LeftLegRoll
				{
					OFFSET 0.000000 -0.000004 23.719498
					CHANNELS 3 Xrotation Yrotation Zrotation
					JOINT LeftFoot
					{
						OFFSET 0.000000 -0.000004 19.344406
						CHANNELS 3 Xrotation Yrotation Zrotation
						JOINT LeftToeBase
						{
							OFFSET 0.000000 -0.000004 16.352600
							CHANNELS 3 Xrotation Yrotation Zrotation
							End Site
							{
								OFFSET -0.031063 0.912838 7.919434
							}
						}
					}
				}
			}
		}
	}
}
MOTION
Frames: 7
Frame Time: 0.041667
49.664196 2.805046 55.338779 -27.138254 -0.109613 5.869275 3.072484 -0.903915 -0.800866 10.136773 -1.856375 -1.539321 11.781995 -1.874692 -1.516418 26.939560 5.512114 -2.725271 -9.606099 -3.126320 -2.218192 -4.198158 -66.930253 -5.712004 -47.393508 -105.130729 -58.565307 -0.000000 0.000000 -0.000001 78.746863 -8.815951 2.308859 0.000003 0.000000 -3.006311 -4.999675 -7.999039 0.000010 12.453493 68.247066 -12.688792 -52.210444 99.700729 58.261234 0.000000 -0.000000 0.000002 70.481535 7.402920 -2.192199 0.000001 -0.000005 2.999978 -4.999909 7.999185 -0.000064 -60.537374 -156.754453 12.055444 179.999991 0.000004 -1.562005 84.961836 2.096450 -0.140957 0.000001 -0.000002 1.989630 71.859143 9.196495 -4.518949 25.457952 -7.350444 0.002936 -63.325833 165.111832 -8.053344 -0.000020 -0.000005 -1.951880 -97.014347 -3.989317 -3.621593 -0.000006 -0.000000 -2.458391 72.958414 -9.055530 4.395215 25.944170 7.353846 -0.070788 
49.662994 2.834927 55.352680 -27.125654 -0.105623 5.882251 3.082652 -0.907896 -0.801934 10.157036 -1.865451 -1.540858 11.802268 -1.883795 -1.517884 26.871375 5.569663 -2.733599 -9.592144 -3.166821 -2.223852 -4.237984 -66.843633 -5.749308 -47.124439 -105.183547 -58.359315 -0.000000 -0.000000 0.000000 78.822876 -8.784955 2.280125 0.000003 0.000003 -3.006309 -4.999676 -7.999036 0.000011 12.406372 68.249026 -12.636478 -52.297618 99.728275 58.414442 0.000000 -0.000002 -0.000001 70.565621 7.380591 -2.178135 0.000001 -0.000006 2.999981 -4.999906 7.999183 -0.000067 -60.543794 -156.785640 12.043410 179.999991 0.000004 -1.562006 84.989936 2.103533 -0.146963 0.000001 -0.000003 1.988330 71.830859 9.189891 -4.493382 25.457951 -7.350446 0.002935 -63.342457 165.159083 -8.027276 -0.000020 -0.000004 -1.952250 -96.996917 -3.999922 -3.630634 -0.000005 0.000000 -2.456900 72.917296 -9.050194 4.369696 25.960031 7.353852 -0.072110 
49.670197 2.848652 55.358791 -27.112549 -0.101302 5.895182 3.092464 -0.912111 -0.803012 10.176606 -1.875013 -1.542376 11.821846 -1.893370 -1.519329 26.804611 5.631228 -2.742737 -9.578452 -3.210388 -2.229965 -4.277453 -66.751992 -5.785799 -46.839327 -105.240313 -58.136262 -0.000000 -0.000001 0.000001 78.897270 -8.754322 2.251590 0.000003 0.000001 -3.006309 -4.999676 -7.999033 0.000011 12.361815 68.252591 -12.586720 -52.384617 99.754804 58.567438 0.000001 0.000001 0.000001 70.649954 7.358352 -2.163940 0.000001 -0.000005 2.999981 -4.999909 7.999183 -0.000063 -60.550242 -156.816827 12.031681 179.999991 0.000005 -1.562005 85.018008 2.110379 -0.153582 0.000001 -0.000003 1.987059 71.802855 9.183549 -4.468593 25.457946 -7.350443 0.002936 -63.359458 165.205884 -8.000979 -0.000020 -0.000004 -1.952560 -96.979452 -4.010305 -3.640666 -0.000006 -0.000001 -2.455387 72.876425 -9.044819 4.344099 25.975691 7.353846 -0.073380 
49.671196 2.863468 55.360691 -27.099240 -0.096748 5.908103 3.102046 -0.916490 -0.804090 10.195674 -1.884901 -1.543895 11.840926 -1.903271 -1.520767 26.738910 5.695605 -2.752395 -9.564945 -3.256086 -2.236384 -4.316646 -66.657046 -5.821664 -46.541742 -105.300541 -57.900005 -0.000000 -0.000000 -0.000001 78.970634 -8.723938 2.223012 0.000003 0.000002 -3.006307 -4.999676 -7.999036 0.000011 12.318975 68.257140 -12.538671 -52.470456 99.780704 58.719143 0.000001 0.000002 0.000000 70.734552 7.336232 -2.149906 0.000001 -0.000005 2.999979 -4.999908 7.999182 -0.000063 -60.557092 -156.847508 12.019308 179.999991 0.000005 -1.562005 85.046155 2.117024 -0.160812 0.000001 -0.000003 1.985810 71.775063 9.177389 -4.444599 25.457949 -7.350441 0.002935 -63.376526 165.252629 -7.975214 -0.000020 -0.000004 -1.952840 -96.961973 -4.020627 -3.648676 -0.000006 0.000001 -2.453883 72.835703 -9.039464 4.318720 25.991243 7.353849 -0.074615 
49.673195 2.875942 55.357990 -27.085742 -0.092059 5.921000 3.111506 -0.920963 -0.805172 10.214542 -1.894975 -1.545390 11.859707 -1.913368 -1.522187 26.673605 5.761619 -2.762270 -9.551557 -3.303021 -2.242976 -4.355499 -66.560077 -5.856991 -46.240756 -105.362423 -57.659999 -0.000000 -0.000000 -0.000000 79.043327 -8.693801 2.194511 0.000003 0.000002 -3.006309 -4.999676 -7.999038 0.000013 12.277176 68.262413 -12.491672 -52.556031 99.806187 58.870562 -0.000000 -0.000002 0.000001 70.819185 7.314199 -2.135626 0.000001 -0.000005 2.999979 -4.999911 7.999185 -0.000062 -60.563485 -156.878599 12.008033 179.999991 0.000004 -1.562005 85.074309 2.123542 -0.168252 0.000001 -0.000000 1.984569 71.747435 9.171316 -4.420906 25.457952 -7.350445 0.002937 -63.393889 165.298883 -7.948733 -0.000020 -0.000005 -1.953112 -96.944392 -4.030841 -3.657679 -0.000005 0.000001 -2.452360 72.795309 -9.034004 4.293383 26.006802 7.353847 -0.075836 
49.673096 2.886795 55.358288 -27.072237 -0.087330 5.933884 3.120919 -0.925458 -0.806254 10.233312 -1.905108 -1.546881 11.878487 -1.923511 -1.523600 26.608559 5.828057 -2.772098 -9.538181 -3.350263 -2.249598 -4.394054 -66.462617 -5.891924 -45.939012 -105.425295 -57.419105 0.000000 -0.000000 0.000000 79.115871 -8.663762 2.165956 0.000003 0.000003 -3.006309 -4.999677 -7.999034 0.000012 12.235571 68.267761 -12.444868 -52.640398 99.831670 59.020757 -0.000001 -0.000001 0.000001 70.903927 7.292183 -2.121312 0.000001 -0.000007 2.999978 -4.999911 7.999183 -0.000064 -60.569919 -156.909690 11.996740 179.999991 0.000005 -1.562005 85.102409 2.130057 -0.175698 0.000000 -0.000001 1.983341 71.719732 9.165268 -4.397206 25.457947 -7.350444 0.002936 -63.411305 165.345110 -7.922280 -0.000020 -0.000004 -1.953360 -96.926893 -4.041046 -3.665668 -0.000005 -0.000001 -2.450839 72.754827 -9.028540 4.267946 26.022263 7.353843 -0.077039 
49.676098 2.909706 55.368587 -27.058730 -0.082661 5.946785 3.130390 -0.929909 -0.807332 10.252185 -1.915141 -1.548369 11.897473 -1.933565 -1.525008 26.543280 5.893728 -2.781596 -9.524770 -3.396900 -2.256093 -4.432345 -66.366134 -5.926645 -45.645468 -105.487347 -57.186667 0.000000 0.000000 -0.000000 79.188769 -8.633785 2.137278 0.000003 0.000003 -3.006309 -4.999677 -7.999034 0.000013 12.193418 68.272727 -12.397498 -52.724348 99.857345 59.170550 0.000000 0.000002 -0.000001 70.988499 7.270287 -2.107031 0.000002 -0.000005 2.999982 -4.999906 7.999184 -0.000062 -60.576265 -156.940699 11.985403 179.999991 0.000007 -1.562004 85.130583 2.136589 -0.183044 0.000001 -0.000003 1.982097 71.692124 9.159141 -4.373527 25.457952 -7.350441 0.002936 -63.428606 165.391159 -7.895476 -0.000020 -0.000002 -1.953631 -96.909463 -4.051244 -3.675681 -0.000005 -0.000000 -2.449319 72.714269 -9.023100 4.242704 26.037714 7.353840 -0.078247 
